<?xml version="1.0" encoding="UTF-8" standalone="no"?>
<!-- Created with Inkscape (http://www.inkscape.org/) -->

<svg
   xmlns:i="http://ns.adobe.com/AdobeIllustrator/10.0/"
   xmlns:dc="http://purl.org/dc/elements/1.1/"
   xmlns:cc="http://creativecommons.org/ns#"
   xmlns:rdf="http://www.w3.org/1999/02/22-rdf-syntax-ns#"
   xmlns:svg="http://www.w3.org/2000/svg"
   xmlns="http://www.w3.org/2000/svg"
   xmlns:xlink="http://www.w3.org/1999/xlink"
   xmlns:sodipodi="http://sodipodi.sourceforge.net/DTD/sodipodi-0.dtd"
   xmlns:inkscape="http://www.inkscape.org/namespaces/inkscape"
   id="svg3044"
   version="1.1"
   inkscape:version="0.48.3.1 r9886"
   width="640"
   height="480"
   sodipodi:docname="joy-kfreebsd.svg">
  <metadata
     id="metadata3050">
    <rdf:RDF>
      <cc:Work
         rdf:about="">
        <dc:format>image/svg+xml</dc:format>
        <dc:type
           rdf:resource="http://purl.org/dc/dcmitype/StillImage" />
        <dc:title></dc:title>
      </cc:Work>
    </rdf:RDF>
  </metadata>
  <defs
     id="defs3048">
    <radialGradient
       inkscape:collect="always"
       xlink:href="#linearGradient3755"
       id="radialGradient3765"
       cx="943.93427"
       cy="580.80634"
       fx="943.93427"
       fy="580.80634"
       r="960"
       gradientTransform="matrix(1.2448906,0,0,0.8766271,-235.09492,-56.788391)"
       gradientUnits="userSpaceOnUse" />
    <linearGradient
       id="linearGradient3755">
      <stop
         style="stop-color:#8f9db3;stop-opacity:1;"
         offset="0"
         id="stop3757" />
      <stop
         style="stop-color:#161b2b;stop-opacity:1;"
         offset="1"
         id="stop3759" />
    </linearGradient>
    <radialGradient
       r="960"
       fy="580.80634"
       fx="943.93427"
       cy="580.80634"
       cx="943.93427"
       gradientTransform="matrix(0.41496355,0,0,0.35065085,-78.364969,36.339742)"
       gradientUnits="userSpaceOnUse"
       id="radialGradient3088-8"
       xlink:href="#linearGradient3755-8"
       inkscape:collect="always" />
    <linearGradient
       id="linearGradient3755-8">
      <stop
         style="stop-color:#8f9db3;stop-opacity:1;"
         offset="0"
         id="stop3757-2" />
      <stop
         style="stop-color:#161b2b;stop-opacity:1;"
         offset="1"
         id="stop3759-7" />
    </linearGradient>
    <radialGradient
       inkscape:collect="always"
       xlink:href="#linearGradient3755-8"
       id="radialGradient6097"
       gradientUnits="userSpaceOnUse"
       gradientTransform="matrix(0.41496355,0,0,0.35065085,-78.364969,36.339742)"
       cx="943.93427"
       cy="580.80634"
       fx="943.93427"
       fy="580.80634"
       r="960" />
  </defs>
  <sodipodi:namedview
     pagecolor="#ffffff"
     bordercolor="#666666"
     borderopacity="1"
     objecttolerance="10"
     gridtolerance="10"
     guidetolerance="10"
     inkscape:pageopacity="0"
     inkscape:pageshadow="2"
     inkscape:window-width="1440"
     inkscape:window-height="853"
     id="namedview3046"
     showgrid="false"
     inkscape:zoom="1"
     inkscape:cx="244.98207"
     inkscape:cy="214.6105"
     inkscape:window-x="-4"
     inkscape:window-y="-3"
     inkscape:window-maximized="1"
     inkscape:current-layer="layer2" />
  <g
     inkscape:groupmode="layer"
     id="layer1"
     inkscape:label="Fonds" />
  <g
     inkscape:groupmode="layer"
     id="layer2"
     inkscape:label="MyStuff">
    <flowRoot
       xml:space="preserve"
       id="flowRoot5221"
       style="fill:black;stroke:none;stroke-opacity:1;stroke-width:1px;stroke-linejoin:miter;stroke-linecap:butt;fill-opacity:1;font-family:LaudatioC;font-style:normal;font-weight:normal;font-size:40px;line-height:125%;letter-spacing:0px;word-spacing:0px;-inkscape-font-specification:LaudatioC;font-stretch:normal;font-variant:normal"><flowRegion
         id="flowRegion5223"><rect
           id="rect5225"
           width="168.81355"
           height="96.610168"
           x="231.86441"
           y="-151.52542" /></flowRegion><flowPara
         id="flowPara5227"></flowPara></flowRoot>    <g
       style="opacity:1"
       id="g5305">
      <rect
         y="0"
         x="0"
         height="480"
         width="640"
         id="rect2985"
         style="fill:url(#radialGradient6097);fill-opacity:1;stroke:none" />
    </g>
    <g
       style="opacity:1;fill:#c8c8c9;fill-opacity:1;overflow:visible"
       id="g3946"
       transform="matrix(1.7187291,0,0,1.7187291,431.0503,100.74554)">
      <g
         i:rgbTrio="#4F008000FFFF"
         i:dimmedPercent="50"
         i:layer="yes"
         id="Layer_1"
         style="fill:#c8c8c9;fill-opacity:1">
        <g
           id="g3916"
           transform="matrix(0.98323459,0,0,0.98323459,-0.0013766,1.8181967)"
           style="fill:#c8c8c9;fill-opacity:1">
          <path
             id="path3918"
             d="m 51.986,57.297 c -1.797,0.025 0.34,0.926 2.686,1.287 0.648,-0.506 1.236,-1.018 1.76,-1.516 -1.461,0.358 -2.948,0.366 -4.446,0.229"
             i:knockout="Off"
             inkscape:connector-curvature="0"
             style="fill:#c8c8c9;fill-opacity:1" />
          <path
             id="path3920"
             d="m 61.631,54.893 c 1.07,-1.477 1.85,-3.094 2.125,-4.766 -0.24,1.192 -0.887,2.221 -1.496,3.307 -3.359,2.115 -0.316,-1.256 -0.002,-2.537 -3.612,4.546 -0.496,2.726 -0.627,3.996"
             i:knockout="Off"
             inkscape:connector-curvature="0"
             style="fill:#c8c8c9;fill-opacity:1" />
          <path
             id="path3922"
             d="m 65.191,45.629 c 0.217,-3.236 -0.637,-2.213 -0.924,-0.978 0.335,0.174 0.6,2.281 0.924,0.978"
             i:knockout="Off"
             inkscape:connector-curvature="0"
             style="fill:#c8c8c9;fill-opacity:1" />
          <path
             id="path3924"
             d="m 45.172,1.399 c 0.959,0.172 2.072,0.304 1.916,0.533 1.049,-0.23 1.287,-0.442 -1.916,-0.533"
             i:knockout="Off"
             inkscape:connector-curvature="0"
             style="fill:#c8c8c9;fill-opacity:1" />
          <path
             id="path3926"
             d="M 47.088,1.932 46.41,2.072 47.041,2.016 47.088,1.932"
             i:knockout="Off"
             inkscape:connector-curvature="0"
             style="fill:#c8c8c9;fill-opacity:1" />
          <g
             id="g6062">
            <path
               style="fill:#c8c8c9;fill-opacity:1"
               inkscape:connector-curvature="0"
               i:knockout="Off"
               d="m 76.992,46.856 c 0.107,2.906 -0.85,4.316 -1.713,6.812 l -1.553,0.776 c -1.271,2.468 0.123,1.567 -0.787,3.53 -1.984,1.764 -6.021,5.52 -7.313,5.863 -0.943,-0.021 0.639,-1.113 0.846,-1.541 -2.656,1.824 -2.131,2.738 -6.193,3.846 L 60.16,65.878 C 50.142,70.591 36.226,61.251 36.409,48.507 c -0.107,0.809 -0.304,0.607 -0.526,0.934 -0.517,-6.557 3.028,-13.143 9.007,-15.832 5.848,-2.895 12.704,-1.707 16.893,2.197 -2.301,-3.014 -6.881,-6.209 -12.309,-5.91 -5.317,0.084 -10.291,3.463 -11.951,7.131 -2.724,1.715 -3.04,6.611 -4.227,7.507 -1.597,11.737 3.004,16.808 10.787,22.773 1.225,0.826 0.345,0.951 0.511,1.58 -2.586,-1.211 -4.954,-3.039 -6.901,-5.277 1.033,1.512 2.148,2.982 3.589,4.137 -2.438,-0.826 -5.695,-5.908 -6.646,-6.115 4.203,7.525 17.052,13.197 23.78,10.383 -3.113,0.115 -7.068,0.064 -10.566,-1.229 -1.469,-0.756 -3.467,-2.322 -3.11,-2.615 9.182,3.43 18.667,2.598 26.612,-3.771 2.021,-1.574 4.229,-4.252 4.867,-4.289 -0.961,1.445 0.164,0.695 -0.574,1.971 2.014,-3.248 -0.875,-1.322 2.082,-5.609 l 1.092,1.504 c -0.406,-2.696 3.348,-5.97 2.967,-10.234 0.861,-1.304 0.961,1.403 0.047,4.403 1.268,-3.328 0.334,-3.863 0.66,-6.609 0.352,0.923 0.814,1.904 1.051,2.878 -0.826,-3.216 0.848,-5.416 1.262,-7.285 -0.408,-0.181 -1.275,1.422 -1.473,-2.377 0.029,-1.65 0.459,-0.865 0.625,-1.271 -0.324,-0.186 -1.174,-1.451 -1.691,-3.877 0.375,-0.57 1.002,1.478 1.512,1.562 -0.328,-1.929 -0.893,-3.4 -0.916,-4.88 -1.49,-3.114 -0.527,0.415 -1.736,-1.337 -1.586,-4.947 1.316,-1.148 1.512,-3.396 2.404,3.483 3.775,8.881 4.404,11.117 -0.48,-2.726 -1.256,-5.367 -2.203,-7.922 0.73,0.307 -1.176,-5.609 0.949,-1.691 C 83.519,18.706 76.074,10.902 69.225,7.24 70.063,8.007 71.121,8.97 70.741,9.121 67.335,7.093 67.934,6.935 67.446,6.078 64.671,4.949 64.489,6.169 62.651,6.08 57.421,3.306 56.413,3.601 51.6,1.863 l 0.219,1.023 c -3.465,-1.154 -4.037,0.438 -7.782,0.004 -0.228,-0.178 1.2,-0.644 2.375,-0.815 -3.35,0.442 -3.193,-0.66 -6.471,0.122 0.808,-0.567 1.662,-0.942 2.524,-1.424 -2.732,0.166 -6.522,1.59 -5.352,0.295 -4.456,1.988 -12.37,4.779 -16.811,8.943 l -0.14,-0.933 c -2.035,2.443 -8.874,7.296 -9.419,10.46 l -0.544,0.127 c -1.059,1.793 -1.744,3.825 -2.584,5.67 -1.385,2.36 -2.03,0.908 -1.833,1.278 -2.724,5.523 -4.077,10.164 -5.246,13.97 0.833,1.245 0.02,7.495 0.335,12.497 -1.368,24.704 17.338,48.69 37.785,54.228 2.997,1.072 7.454,1.031 11.245,1.141 -4.473,-1.279 -5.051,-0.678 -9.408,-2.197 -3.143,-1.48 -3.832,-3.17 -6.058,-5.102 l 0.881,1.557 c -4.366,-1.545 -2.539,-1.912 -6.091,-3.037 l 0.941,-1.229 C 28.751,98.334 26.418,96.056 25.78,94.795 l -1.548,0.061 c -1.86,-2.295 -2.851,-3.949 -2.779,-5.23 l -0.5,0.891 c -0.567,-0.973 -6.843,-8.607 -3.587,-6.83 -0.605,-0.553 -1.409,-0.9 -2.281,-2.484 l 0.663,-0.758 c -1.567,-2.016 -2.884,-4.6 -2.784,-5.461 0.836,1.129 1.416,1.34 1.99,1.533 -3.957,-9.818 -4.179,-0.541 -7.176,-9.994 L 8.412,66.472 C 7.926,65.74 7.631,64.945 7.24,64.165 l 0.276,-2.75 C 4.667,58.121 6.719,47.409 7.13,41.534 7.415,39.145 9.508,36.602 11.1,32.614 l -0.97,-0.167 c 1.854,-3.234 10.586,-12.988 14.63,-12.486 1.959,-2.461 -0.389,-0.009 -0.772,-0.629 4.303,-4.453 5.656,-3.146 8.56,-3.947 3.132,-1.859 -2.688,0.725 -1.203,-0.709 5.414,-1.383 3.837,-3.144 10.9,-3.846 0.745,0.424 -1.729,0.655 -2.35,1.205 4.511,-2.207 14.275,-1.705 20.617,1.225 7.359,3.439 15.627,13.605 15.953,23.17 l 0.371,0.1 c -0.188,3.802 0.582,8.199 -0.752,12.238 l 0.908,-1.912"
               id="path3928" />
          </g>
          <path
             id="path3930"
             d="m 32.372,59.764 -0.252,1.26 c 1.181,1.604 2.118,3.342 3.626,4.596 -1.085,-2.118 -1.891,-2.993 -3.374,-5.856"
             i:knockout="Off"
             inkscape:connector-curvature="0"
             style="fill:#c8c8c9;fill-opacity:1" />
          <path
             id="path3932"
             d="m 35.164,59.654 c -0.625,-0.691 -0.995,-1.523 -1.409,-2.352 0.396,1.457 1.207,2.709 1.962,3.982 l -0.553,-1.63"
             i:knockout="Off"
             inkscape:connector-curvature="0"
             style="fill:#c8c8c9;fill-opacity:1" />
          <path
             id="path3934"
             d="m 84.568,48.916 -0.264,0.662 c -0.484,3.438 -1.529,6.84 -3.131,9.994 1.77,-3.328 2.915,-6.968 3.395,-10.656"
             i:knockout="Off"
             inkscape:connector-curvature="0"
             style="fill:#c8c8c9;fill-opacity:1" />
          <path
             id="path3936"
             d="M 45.527,0.537 C 46.742,0.092 48.514,0.293 49.803,0 48.123,0.141 46.451,0.225 44.8,0.438 l 0.727,0.099"
             i:knockout="Off"
             inkscape:connector-curvature="0"
             style="fill:#c8c8c9;fill-opacity:1" />
          <path
             id="path3938"
             d="m 2.872,23.219 c 0.28,2.592 -1.95,3.598 0.494,1.889 1.31,-2.951 -0.512,-0.815 -0.494,-1.889"
             i:knockout="Off"
             inkscape:connector-curvature="0"
             style="fill:#c8c8c9;fill-opacity:1" />
          <path
             id="path3940"
             d="M 0,35.215 C 0.563,33.487 0.665,32.449 0.88,31.449 -0.676,33.438 0.164,33.862 0,35.215"
             i:knockout="Off"
             inkscape:connector-curvature="0"
             style="fill:#c8c8c9;fill-opacity:1" />
        </g>
      </g>
    </g>
    <g
       transform="matrix(0.8736553,0,0,1.1446162,-441,153)"
       style="font-size:63.29520415999999727px;font-style:normal;font-variant:normal;font-weight:bold;font-stretch:normal;text-align:start;line-height:125%;letter-spacing:0px;word-spacing:0px;writing-mode:lr-tb;text-anchor:start;opacity:1;fill:#c8c8c9;fill-opacity:1;stroke:none;font-family:LaudatioC;-inkscape-font-specification:LaudatioC Bold"
       id="text5217">
      <path
         inkscape:connector-curvature="0"
         d="m 561.12921,217.73013 c -0.71738,4.38852 -1.07605,9.19895 -1.07602,14.43131 l -0.0633,25.95104 c -3e-5,3.24915 0.35864,5.71766 1.07602,7.40553 -1.43472,-0.16878 -2.61623,-0.25318 -3.54453,-0.25318 -0.88616,0 -2.02547,0.0844 -3.41794,0.25318 -0.12662,-2.36301 -0.18991,-4.59944 -0.18989,-6.70929 -1.81448,4.55726 -5.23242,6.83588 -10.25382,6.83588 -4.55726,0 -7.9752,-1.68787 -10.25382,-5.06361 -1.94106,-2.86938 -2.91158,-6.68818 -2.91158,-11.45643 0,-5.78094 1.43469,-10.40149 4.30407,-13.86165 3.03816,-3.71329 7.40553,-5.56995 13.10211,-5.56998 1.85664,3e-5 3.83989,0.29541 5.94975,0.88613 -0.0844,-3.20692 -0.16881,-5.04248 -0.25318,-5.50668 -0.2954,-2.36298 -1.03385,-3.88206 -2.21533,-4.55726 3.92427,-0.54851 7.17342,-1.47684 9.74746,-2.78499 m -7.27895,32.59704 0,-15.06426 c -2.57403,-1.0127 -4.87375,-1.51906 -6.89918,-1.51909 -3.62894,3e-5 -6.35063,1.45582 -8.16508,4.36737 -1.51909,2.44744 -2.27863,5.5911 -2.27863,9.43099 0,3.41795 0.67514,6.28733 2.02545,8.60814 1.64566,2.8272 4.05088,4.24079 7.21565,4.24078 5.40117,1e-5 8.10176,-3.35464 8.10179,-10.06393"
         style="font-weight:normal;line-height:125%;fill:#c8c8c9;fill-opacity:1;font-family:LaudatioC;-inkscape-font-specification:LaudatioC"
         id="path5245" />
      <path
         d="m 595.9023,244.31412 c -3e-5,1.13933 -0.0633,2.38414 -0.18988,3.73442 l -22.84957,0 c 0.67514,8.98792 4.93701,13.48188 12.78563,13.48188 3.92428,0 6.98354,-1.18151 9.17781,-3.54454 -0.71738,2.10985 -1.16045,4.26188 -1.3292,6.45612 -2.91161,0.84393 -5.90758,1.2659 -8.98792,1.2659 -5.73878,0 -10.25384,-1.60348 -13.54518,-4.81044 -3.29135,-3.20695 -4.93702,-7.6798 -4.93702,-13.41858 0,-5.40117 1.287,-9.66304 3.86101,-12.78563 2.82717,-3.37571 6.87806,-5.06358 12.15268,-5.06362 4.51503,4e-5 7.95407,1.30814 10.31711,3.92431 2.36299,2.61623 3.5445,6.20295 3.54453,10.76018 m -6.64599,0 c 0.0422,-7.38441 -2.53183,-11.07663 -7.72202,-11.07666 -5.359,3e-5 -8.27058,3.69225 -8.73473,11.07666 l 16.45675,0"
         style="font-weight:normal;line-height:125%;fill:#c8c8c9;fill-opacity:1;font-family:LaudatioC;-inkscape-font-specification:LaudatioC"
         id="path5247"
         inkscape:connector-curvature="0" />
      <path
         d="m 630.78451,244.75719 c -3e-5,6.20294 -1.60351,11.18216 -4.81043,14.93767 -3.46017,4.00869 -8.2284,6.01304 -14.30472,6.01304 -3.24916,0 -7.02577,-0.59076 -11.32984,-1.77227 0.59075,-3.46013 0.88613,-7.63761 0.88613,-12.53245 l 0,-20.63423 c 0,-5.61214 -0.94943,-9.07227 -2.84828,-10.38042 3.50233,-0.33753 6.77258,-1.26585 9.81076,-2.78499 -0.54857,3.79776 -0.82285,7.80645 -0.82284,12.02609 l 0,7.72202 c 2.36301,-5.14798 6.05522,-7.72198 11.07666,-7.72202 4.30405,4e-5 7.511,1.49802 9.62087,4.49396 1.81443,2.61623 2.72166,6.16076 2.72169,10.6336 m -6.13963,2.34192 c -3e-5,-3.24913 -0.61188,-5.97082 -1.83556,-8.16508 -1.51911,-2.65837 -3.79774,-3.98757 -6.83588,-3.9876 -5.69659,3e-5 -8.54487,4.43069 -8.54486,13.29199 l 0,12.91223 c 1.81445,0.46416 3.60782,0.69625 5.3801,0.69624 7.89077,1e-5 11.83617,-4.91592 11.8362,-14.74778"
         style="font-weight:normal;line-height:125%;fill:#c8c8c9;fill-opacity:1;font-family:LaudatioC;-inkscape-font-specification:LaudatioC"
         id="path5249"
         inkscape:connector-curvature="0" />
      <path
         d="m 646.03441,265.39142 c -1.81447,-0.16878 -3.18586,-0.25318 -4.11418,-0.25318 -1.01273,0 -2.38413,0.0844 -4.11419,0.25318 0.59075,-2.10983 0.88613,-5.1902 0.88613,-9.2411 l 0,-14.93766 c 0,-5.31677 -0.73845,-8.77691 -2.21533,-10.38042 2.99597,-0.0844 6.01303,-0.67511 9.05121,-1.77226 -0.50637,2.57404 -0.75955,5.6544 -0.75954,9.2411 l 0,17.27959 c -10e-6,3.46014 0.42196,6.73039 1.2659,9.81075"
         style="font-weight:normal;line-height:125%;fill:#c8c8c9;fill-opacity:1;font-family:LaudatioC;-inkscape-font-specification:LaudatioC"
         id="path5251"
         inkscape:connector-curvature="0"
         sodipodi:nodetypes="cscssccssc" />
      <path
         d="m 682.57224,265.51801 c -1.68791,-0.25318 -3.0382,-0.37977 -4.0509,-0.37977 -1.01275,0 -2.36305,0.12659 -4.05089,0.37977 -0.12662,-0.97052 -0.18991,-3.67111 -0.18989,-8.10178 -0.88615,2.53181 -2.38414,4.55726 -4.49396,6.07634 -2.10985,1.47689 -4.49397,2.21533 -7.15235,2.21533 -3.12258,0 -5.63328,-1.01272 -7.53213,-3.03817 -1.89886,-2.02544 -2.84829,-4.62054 -2.84829,-7.78531 0,-7.76419 6.09743,-11.6463 18.29232,-11.64632 1.0127,2e-5 2.15201,0.0211 3.41794,0.0633 l 0,-1.64568 c -3e-5,-5.44336 -2.21536,-8.16505 -6.646,-8.16508 -2.15205,3e-5 -4.32518,0.50639 -6.51941,1.51909 -2.15204,0.97055 -3.86101,2.27865 -5.12691,3.9243 -0.37977,-1.81444 -1.07602,-3.67109 -2.08874,-5.56998 5.48558,-2.44738 10.50699,-3.67109 15.06426,-3.67112 4.00867,3e-5 6.96245,0.88617 8.86133,2.6584 1.94102,1.7301 2.91155,4.55728 2.91158,8.48155 l 0,15.9504 c -3e-5,2.19424 0.0844,3.71332 0.25318,4.55725 0.25315,1.47689 0.8861,2.86938 1.89886,4.17748 m -8.60815,-18.4189 c -1.47691,-0.21097 -2.9538,-0.31646 -4.43067,-0.31648 -6.96248,2e-5 -10.44372,2.70061 -10.44371,8.10179 -10e-6,1.73008 0.50636,3.14367 1.51909,4.24078 1.05491,1.09712 2.4474,1.64568 4.17748,1.64567 2.32081,10e-6 4.30406,-0.90722 5.94975,-2.72169 1.30808,-1.43468 2.19421,-3.14365 2.6584,-5.12691 0.29535,-1.26589 0.48524,-3.20694 0.56966,-5.82316"
         style="font-weight:normal;line-height:125%;fill:#c8c8c9;fill-opacity:1;font-family:LaudatioC;-inkscape-font-specification:LaudatioC"
         id="path5253"
         inkscape:connector-curvature="0" />
      <path
         d="m 720.8863,265.51801 c -2.02548,-0.21098 -3.39687,-0.31647 -4.11419,-0.31647 -0.63298,0 -2.06767,0.10549 -4.30407,0.31647 0.63292,-2.44741 0.9494,-5.65436 0.94943,-9.62087 l 0,-13.92494 c -3e-5,-2.53178 -0.4009,-4.34624 -1.20261,-5.44339 -0.97055,-1.35027 -2.65843,-2.02542 -5.06362,-2.02545 -4.1775,3e-5 -7.00468,1.60351 -8.48156,4.81044 -0.92834,2.10986 -1.3925,5.5489 -1.39249,10.31712 l 0,6.96247 c -10e-6,3.9665 0.33756,6.94138 1.01272,8.92462 -1.68788,-0.25318 -3.01708,-0.37977 -3.9876,-0.37977 -1.01273,0 -2.34192,0.12659 -3.98759,0.37977 0.54855,-2.27862 0.82283,-5.25349 0.82283,-8.92462 l 0,-12.27927 c 0,-3.50231 -0.0844,-5.88643 -0.25318,-7.15236 -0.33758,-3.08033 -1.16041,-5.14797 -2.46851,-6.20293 2.74279,4e-5 5.75986,-0.61182 9.05121,-1.83556 -0.0422,0.97056 -0.0633,2.13097 -0.0633,3.48124 l 0,4.81043 c 1.39248,-2.82715 3.05925,-4.8315 5.00032,-6.01304 1.94103,-1.18148 4.49394,-1.77223 7.65872,-1.77227 4.17746,4e-5 6.94134,1.26594 8.29167,3.79772 0.9283,1.77229 1.39246,4.93705 1.3925,9.49428 l 0,13.79835 c -4e-5,4.17749 0.37973,7.11016 1.13931,8.79803"
         style="font-weight:normal;line-height:125%;fill:#c8c8c9;fill-opacity:1;font-family:LaudatioC;-inkscape-font-specification:LaudatioC"
         id="path5255"
         inkscape:connector-curvature="0" />
    </g>
    <rect
       style="opacity:1;fill:#ff0000;fill-opacity:1;fill-rule:evenodd;stroke:none"
       id="rect5259"
       width="8.4807091"
       height="8.4807091"
       x="-207.44516"
       y="367.34421"
       transform="matrix(0.70710678,-0.70710678,0.70710678,0.70710678,0,0)" />
    <text
       xml:space="preserve"
       style="font-size:11.57578754000000032px;font-style:normal;font-variant:normal;font-weight:normal;font-stretch:normal;line-height:125%;letter-spacing:0px;word-spacing:0px;opacity:1;fill:#c8c8c9;fill-opacity:1;stroke:none;font-family:LaudatioC;-inkscape-font-specification:LaudatioC"
       x="21.088305"
       y="500.78586"
       id="text5281"
       sodipodi:linespacing="125%"
       transform="scale(1.0644644,0.9394396)"><tspan
         sodipodi:role="line"
         id="tspan5283"
         x="21.088305"
         y="500.78586"
         style="font-style:normal;font-variant:normal;font-weight:bold;font-stretch:normal;fill:#c8c8c9;fill-opacity:1;font-family:Liberation Sans;-inkscape-font-specification:Liberation Sans Bold">GNU/kFreeBSD</tspan></text>
  </g>
</svg>
