<?xml version="1.0" encoding="UTF-8" standalone="no"?>
<!-- Created with Inkscape (http://www.inkscape.org/) -->

<svg
   xmlns:dc="http://purl.org/dc/elements/1.1/"
   xmlns:cc="http://creativecommons.org/ns#"
   xmlns:rdf="http://www.w3.org/1999/02/22-rdf-syntax-ns#"
   xmlns:svg="http://www.w3.org/2000/svg"
   xmlns="http://www.w3.org/2000/svg"
   xmlns:xlink="http://www.w3.org/1999/xlink"
   version="1.2"
   width="640"
   height="480"
   id="svg3044">
  <metadata
     id="metadata3050">
    <rdf:RDF>
      <cc:Work
         rdf:about="">
        <dc:format>image/svg+xml</dc:format>
        <dc:type
           rdf:resource="http://purl.org/dc/dcmitype/StillImage" />
        <dc:title></dc:title>
      </cc:Work>
    </rdf:RDF>
  </metadata>
  <defs
     id="defs3048">
    <radialGradient
       cx="943.93427"
       cy="580.80634"
       r="960"
       fx="943.93427"
       fy="580.80634"
       id="radialGradient3765"
       xlink:href="#linearGradient3755"
       gradientUnits="userSpaceOnUse"
       gradientTransform="matrix(1.2448906,0,0,0.8766271,-235.09492,-56.788391)" />
    <linearGradient
       id="linearGradient3755">
      <stop
         id="stop3757"
         style="stop-color:#8f9db3;stop-opacity:1"
         offset="0" />
      <stop
         id="stop3759"
         style="stop-color:#161b2b;stop-opacity:1"
         offset="1" />
    </linearGradient>
    <radialGradient
       cx="943.93427"
       cy="580.80634"
       r="960"
       fx="943.93427"
       fy="580.80634"
       id="radialGradient3088-8"
       xlink:href="#linearGradient3755-8"
       gradientUnits="userSpaceOnUse"
       gradientTransform="matrix(0.41496355,0,0,0.35065085,-78.364969,36.339742)" />
    <linearGradient
       id="linearGradient3755-8">
      <stop
         id="stop3757-2"
         style="stop-color:#8f9db3;stop-opacity:1"
         offset="0" />
      <stop
         id="stop3759-7"
         style="stop-color:#161b2b;stop-opacity:1"
         offset="1" />
    </linearGradient>
    <radialGradient
       cx="943.93427"
       cy="580.80634"
       r="960"
       fx="943.93427"
       fy="580.80634"
       id="radialGradient6097"
       xlink:href="#linearGradient3755-8"
       gradientUnits="userSpaceOnUse"
       gradientTransform="matrix(0.41496355,0,0,0.35065085,-78.364969,36.339742)" />
  </defs>
  <g
     id="layer1" />
  <g
     id="layer2">
    <flowRoot
       id="flowRoot5221"
       xml:space="preserve"
       style="font-size:40px;font-style:normal;font-variant:normal;font-weight:normal;font-stretch:normal;line-height:125%;letter-spacing:0px;word-spacing:0px;fill:#000000;fill-opacity:1;stroke:none"><flowRegion
         id="flowRegion5223"><rect
           width="168.81355"
           height="96.610168"
           x="231.86441"
           y="-151.52542"
           id="rect5225" /></flowRegion><flowPara
         id="flowPara5227" /></flowRoot>    <g
       id="g5305">
      <rect
         width="640"
         height="480"
         x="0"
         y="0"
         id="rect2985"
         style="fill:url(#radialGradient6097);fill-opacity:1;stroke:none" />
    </g>
    <g
       transform="matrix(1.3459947,0,0,1.3459947,-795.73784,-965.8057)"
       id="text3004"
       style="font-size:12px;font-style:normal;font-variant:normal;font-weight:normal;font-stretch:normal;line-height:125%;letter-spacing:0px;word-spacing:0px;fill:#c8c8c9;fill-opacity:1;stroke:none;font-family:Ubuntu;-inkscape-font-specification:Ubuntu">
      <path
         d="m 623.44977,1037.666 0,-11.8359 3.59375,0 0,30.3906 -3.59375,0 0,-3.2812 c -0.75523,1.302 -1.71226,2.2721 -2.8711,2.9101 -1.14584,0.625 -2.52605,0.9375 -4.14062,0.9375 -2.64324,0 -4.79818,-1.0547 -6.46484,-3.1641 -1.65365,-2.1093 -2.48048,-4.8828 -2.48047,-8.3203 -10e-6,-3.4375 0.82682,-6.2109 2.48047,-8.3203 1.66666,-2.1093 3.8216,-3.164 6.46484,-3.164 1.61457,0 2.99478,0.319 4.14062,0.957 1.15884,0.625 2.11587,1.5886 2.8711,2.8906 m -12.2461,7.6367 c 0,2.6433 0.54036,4.7201 1.6211,6.2305 1.09374,1.4974 2.59113,2.2461 4.49219,2.2461 1.90102,0 3.39842,-0.7487 4.49218,-2.2461 1.09374,-1.5104 1.64061,-3.5872 1.64063,-6.2305 -2e-5,-2.6432 -0.54689,-4.7135 -1.64063,-6.2109 -1.09376,-1.5104 -2.59116,-2.2656 -4.49218,-2.2656 -1.90106,0 -3.39845,0.7552 -4.49219,2.2656 -1.08074,1.4974 -1.6211,3.5677 -1.6211,6.2109"
         id="path4592"
         style="font-size:40px;letter-spacing:-1.73000038px;fill:#c8c8c9;font-family:Linux Libertine;-inkscape-font-specification:Linux Libertine" />
      <path
         d="m 651.4268,1044.3848 0,1.7578 -16.52344,0 c 0.15625,2.4739 0.89843,4.362 2.22656,5.664 1.34114,1.2891 3.20312,1.9336 5.58594,1.9336 1.3802,0 2.71483,-0.1692 4.00391,-0.5078 1.30206,-0.3385 2.59112,-0.8463 3.86719,-1.5234 l 0,3.3984 c -1.28909,0.5469 -2.6107,0.9636 -3.96485,1.25 -1.35418,0.2865 -2.72788,0.4297 -4.12109,0.4297 -3.48959,0 -6.25652,-1.0156 -8.30078,-3.0469 -2.03126,-2.0312 -3.04688,-4.7786 -3.04688,-8.2422 0,-3.5807 0.96354,-6.4192 2.89063,-8.5156 1.94009,-2.1093 4.55077,-3.164 7.83203,-3.164 2.94269,0 5.26691,0.9505 6.97265,2.8515 1.71873,1.8881 2.57811,4.4597 2.57813,7.7149 m -3.59375,-1.0547 c -0.0261,-1.9662 -0.57945,-3.5352 -1.66016,-4.7071 -1.06772,-1.1718 -2.48699,-1.7577 -4.25781,-1.7578 -2.00522,10e-5 -3.61329,0.5665 -4.82422,1.6993 -1.19792,1.1328 -1.88802,2.7278 -2.07031,4.7851 l 12.8125,-0.02"
         id="path4594"
         style="font-size:40px;letter-spacing:-1.73000038px;fill:#c8c8c9;font-family:Linux Libertine;-inkscape-font-specification:Linux Libertine" />
      <path
         d="m 671.29836,1045.3027 c -2e-5,-2.6432 -0.54689,-4.7135 -1.64062,-6.2109 -1.08075,-1.5104 -2.57163,-2.2656 -4.47266,-2.2656 -1.90105,0 -3.39845,0.7552 -4.49219,2.2656 -1.08073,1.4974 -1.6211,3.5677 -1.62109,6.2109 -1e-5,2.6433 0.54036,4.7201 1.62109,6.2305 1.09374,1.4974 2.59114,2.2461 4.49219,2.2461 1.90103,0 3.39191,-0.7487 4.47266,-2.2461 1.09373,-1.5104 1.6406,-3.5872 1.64062,-6.2305 m -12.22656,-7.6367 c 0.7552,-1.302 1.70572,-2.2656 2.85156,-2.8906 1.15885,-0.638 2.53905,-0.957 4.14063,-0.957 2.65623,0 4.81118,1.0547 6.46484,3.164 1.66665,2.1094 2.49998,4.8828 2.5,8.3203 -2e-5,3.4375 -0.83335,6.211 -2.5,8.3203 -1.65366,2.1094 -3.80861,3.1641 -6.46484,3.1641 -1.60158,0 -2.98178,-0.3125 -4.14063,-0.9375 -1.14584,-0.638 -2.09636,-1.6081 -2.85156,-2.9101 l 0,3.2812 -3.61328,0 0,-30.3906 3.61328,0 0,11.8359"
         id="path4596"
         style="font-size:40px;letter-spacing:-1.73000038px;fill:#c8c8c9;font-family:Linux Libertine;-inkscape-font-specification:Linux Libertine" />
      <path
         d="m 679.31932,1034.3777 3.59375,0 0,21.875 -3.59375,0 0,-21.875"
         id="path4598"
         style="font-size:40px;letter-spacing:-1.73000038px;fill:#c8c8c9;font-family:Linux Libertine;-inkscape-font-specification:Linux Libertine" />
      <path
         d="m 698.56102,1045.2246 c -2.90366,0 -4.91537,0.3321 -6.03516,0.9961 -1.11979,0.6641 -1.67969,1.7969 -1.67968,3.3984 -10e-6,1.2761 0.41666,2.2917 1.25,3.0469 0.84634,0.7422 1.99217,1.1133 3.4375,1.1133 1.99217,0 3.58722,-0.7031 4.78515,-2.1094 1.21092,-1.4192 1.81639,-3.3008 1.81641,-5.6445 l 0,-0.8008 -3.57422,0 m 7.16797,-1.4844 0,12.4805 -3.59375,0 0,-3.3203 c -0.82033,1.3281 -1.84246,2.3112 -3.06641,2.9492 -1.22397,0.625 -2.72136,0.9375 -4.49219,0.9375 -2.23959,0 -4.02344,-0.625 -5.35156,-1.875 -1.3151,-1.263 -1.97266,-2.9492 -1.97265,-5.0586 -10e-6,-2.4609 0.82031,-4.3164 2.46093,-5.5664 1.65364,-1.25 4.11458,-1.875 7.38282,-1.875 l 5.03906,0 0,-0.3516 c -2e-5,-1.6536 -0.54689,-2.9296 -1.64063,-3.8281 -1.08074,-0.9114 -2.60418,-1.3671 -4.57031,-1.3672 -1.25001,10e-5 -2.46746,0.1498 -3.65234,0.4493 -1.1849,0.2995 -2.32423,0.7487 -3.41797,1.3476 l 0,-3.3203 c 1.3151,-0.5078 2.59114,-0.8854 3.82812,-1.1328 1.23697,-0.2604 2.4414,-0.3906 3.61328,-0.3906 3.16405,0 5.52733,0.8203 7.08985,2.4609 1.56248,1.6406 2.34373,4.1276 2.34375,7.4609"
         id="path4600"
         style="font-size:40px;letter-spacing:-1.73000038px;fill:#c8c8c9;font-family:Linux Libertine;-inkscape-font-specification:Linux Libertine" />
      <path
         d="m 729.60445,1043.0176 0,13.2031 -3.59375,0 0,-13.0859 c -1e-5,-2.0703 -0.40366,-3.6198 -1.21093,-4.6485 -0.80731,-1.0286 -2.01825,-1.5429 -3.63282,-1.5429 -1.94011,0 -3.47006,0.6185 -4.58984,1.8554 -1.1198,1.237 -1.67969,2.9232 -1.67969,5.0586 l 0,12.3633 -3.61328,0 0,-21.875 3.61328,0 0,3.3984 c 0.85937,-1.315 1.86848,-2.2981 3.02735,-2.9492 1.17186,-0.651 2.51951,-0.9765 4.04297,-0.9765 2.513,0 4.41404,0.7812 5.70312,2.3437 1.28904,1.5495 1.93357,3.8347 1.93359,6.8555"
         id="path4602"
         style="font-size:40px;letter-spacing:-1.73000038px;fill:#c8c8c9;font-family:Linux Libertine;-inkscape-font-specification:Linux Libertine" />
      <path
         d="m 678.57486,1028.0802 2.54134,-2.5413 2.54134,2.5413 -2.54134,2.5413 -2.54134,-2.5413"
         id="path4598-2"
         style="font-size:40px;font-style:normal;font-variant:normal;font-weight:normal;font-stretch:normal;line-height:125%;letter-spacing:-1.73000038px;word-spacing:0px;fill:#ff0000;fill-opacity:1;stroke:none;font-family:Linux Libertine;-inkscape-font-specification:Linux Libertine" />
    </g>
    <g
       transform="matrix(1.7187291,0,0,1.7187291,431.0503,100.74554)"
       id="g3946"
       style="fill:#c8c8c9;fill-opacity:1;overflow:visible">
      <g
         id="Layer_1"
         style="fill:#c8c8c9;fill-opacity:1">
        <g
           transform="matrix(0.98323459,0,0,0.98323459,-0.0013766,1.8181967)"
           id="g3916"
           style="fill:#c8c8c9;fill-opacity:1">
          <path
             d="m 51.986,57.297 c -1.797,0.025 0.34,0.926 2.686,1.287 0.648,-0.506 1.236,-1.018 1.76,-1.516 -1.461,0.358 -2.948,0.366 -4.446,0.229"
             id="path3918"
             style="fill:#c8c8c9;fill-opacity:1" />
          <path
             d="m 61.631,54.893 c 1.07,-1.477 1.85,-3.094 2.125,-4.766 -0.24,1.192 -0.887,2.221 -1.496,3.307 -3.359,2.115 -0.316,-1.256 -0.002,-2.537 -3.612,4.546 -0.496,2.726 -0.627,3.996"
             id="path3920"
             style="fill:#c8c8c9;fill-opacity:1" />
          <path
             d="m 65.191,45.629 c 0.217,-3.236 -0.637,-2.213 -0.924,-0.978 0.335,0.174 0.6,2.281 0.924,0.978"
             id="path3922"
             style="fill:#c8c8c9;fill-opacity:1" />
          <path
             d="m 45.172,1.399 c 0.959,0.172 2.072,0.304 1.916,0.533 1.049,-0.23 1.287,-0.442 -1.916,-0.533"
             id="path3924"
             style="fill:#c8c8c9;fill-opacity:1" />
          <path
             d="M 47.088,1.932 46.41,2.072 47.041,2.016 47.088,1.932"
             id="path3926"
             style="fill:#c8c8c9;fill-opacity:1" />
          <g
             id="g6062">
            <path
               d="m 76.992,46.856 c 0.107,2.906 -0.85,4.316 -1.713,6.812 l -1.553,0.776 c -1.271,2.468 0.123,1.567 -0.787,3.53 -1.984,1.764 -6.021,5.52 -7.313,5.863 -0.943,-0.021 0.639,-1.113 0.846,-1.541 -2.656,1.824 -2.131,2.738 -6.193,3.846 L 60.16,65.878 C 50.142,70.591 36.226,61.251 36.409,48.507 c -0.107,0.809 -0.304,0.607 -0.526,0.934 -0.517,-6.557 3.028,-13.143 9.007,-15.832 5.848,-2.895 12.704,-1.707 16.893,2.197 -2.301,-3.014 -6.881,-6.209 -12.309,-5.91 -5.317,0.084 -10.291,3.463 -11.951,7.131 -2.724,1.715 -3.04,6.611 -4.227,7.507 -1.597,11.737 3.004,16.808 10.787,22.773 1.225,0.826 0.345,0.951 0.511,1.58 -2.586,-1.211 -4.954,-3.039 -6.901,-5.277 1.033,1.512 2.148,2.982 3.589,4.137 -2.438,-0.826 -5.695,-5.908 -6.646,-6.115 4.203,7.525 17.052,13.197 23.78,10.383 -3.113,0.115 -7.068,0.064 -10.566,-1.229 -1.469,-0.756 -3.467,-2.322 -3.11,-2.615 9.182,3.43 18.667,2.598 26.612,-3.771 2.021,-1.574 4.229,-4.252 4.867,-4.289 -0.961,1.445 0.164,0.695 -0.574,1.971 2.014,-3.248 -0.875,-1.322 2.082,-5.609 l 1.092,1.504 c -0.406,-2.696 3.348,-5.97 2.967,-10.234 0.861,-1.304 0.961,1.403 0.047,4.403 1.268,-3.328 0.334,-3.863 0.66,-6.609 0.352,0.923 0.814,1.904 1.051,2.878 -0.826,-3.216 0.848,-5.416 1.262,-7.285 -0.408,-0.181 -1.275,1.422 -1.473,-2.377 0.029,-1.65 0.459,-0.865 0.625,-1.271 -0.324,-0.186 -1.174,-1.451 -1.691,-3.877 0.375,-0.57 1.002,1.478 1.512,1.562 -0.328,-1.929 -0.893,-3.4 -0.916,-4.88 -1.49,-3.114 -0.527,0.415 -1.736,-1.337 -1.586,-4.947 1.316,-1.148 1.512,-3.396 2.404,3.483 3.775,8.881 4.404,11.117 -0.48,-2.726 -1.256,-5.367 -2.203,-7.922 0.73,0.307 -1.176,-5.609 0.949,-1.691 C 83.519,18.706 76.074,10.902 69.225,7.24 70.063,8.007 71.121,8.97 70.741,9.121 67.335,7.093 67.934,6.935 67.446,6.078 64.671,4.949 64.489,6.169 62.651,6.08 57.421,3.306 56.413,3.601 51.6,1.863 l 0.219,1.023 c -3.465,-1.154 -4.037,0.438 -7.782,0.004 -0.228,-0.178 1.2,-0.644 2.375,-0.815 -3.35,0.442 -3.193,-0.66 -6.471,0.122 0.808,-0.567 1.662,-0.942 2.524,-1.424 -2.732,0.166 -6.522,1.59 -5.352,0.295 -4.456,1.988 -12.37,4.779 -16.811,8.943 l -0.14,-0.933 c -2.035,2.443 -8.874,7.296 -9.419,10.46 l -0.544,0.127 c -1.059,1.793 -1.744,3.825 -2.584,5.67 -1.385,2.36 -2.03,0.908 -1.833,1.278 -2.724,5.523 -4.077,10.164 -5.246,13.97 0.833,1.245 0.02,7.495 0.335,12.497 -1.368,24.704 17.338,48.69 37.785,54.228 2.997,1.072 7.454,1.031 11.245,1.141 -4.473,-1.279 -5.051,-0.678 -9.408,-2.197 -3.143,-1.48 -3.832,-3.17 -6.058,-5.102 l 0.881,1.557 c -4.366,-1.545 -2.539,-1.912 -6.091,-3.037 l 0.941,-1.229 C 28.751,98.334 26.418,96.056 25.78,94.795 l -1.548,0.061 c -1.86,-2.295 -2.851,-3.949 -2.779,-5.23 l -0.5,0.891 c -0.567,-0.973 -6.843,-8.607 -3.587,-6.83 -0.605,-0.553 -1.409,-0.9 -2.281,-2.484 l 0.663,-0.758 c -1.567,-2.016 -2.884,-4.6 -2.784,-5.461 0.836,1.129 1.416,1.34 1.99,1.533 -3.957,-9.818 -4.179,-0.541 -7.176,-9.994 L 8.412,66.472 C 7.926,65.74 7.631,64.945 7.24,64.165 l 0.276,-2.75 C 4.667,58.121 6.719,47.409 7.13,41.534 7.415,39.145 9.508,36.602 11.1,32.614 l -0.97,-0.167 c 1.854,-3.234 10.586,-12.988 14.63,-12.486 1.959,-2.461 -0.389,-0.009 -0.772,-0.629 4.303,-4.453 5.656,-3.146 8.56,-3.947 3.132,-1.859 -2.688,0.725 -1.203,-0.709 5.414,-1.383 3.837,-3.144 10.9,-3.846 0.745,0.424 -1.729,0.655 -2.35,1.205 4.511,-2.207 14.275,-1.705 20.617,1.225 7.359,3.439 15.627,13.605 15.953,23.17 l 0.371,0.1 c -0.188,3.802 0.582,8.199 -0.752,12.238 l 0.908,-1.912"
               id="path3928"
               style="fill:#c8c8c9;fill-opacity:1" />
          </g>
          <path
             d="m 32.372,59.764 -0.252,1.26 c 1.181,1.604 2.118,3.342 3.626,4.596 -1.085,-2.118 -1.891,-2.993 -3.374,-5.856"
             id="path3930"
             style="fill:#c8c8c9;fill-opacity:1" />
          <path
             d="m 35.164,59.654 c -0.625,-0.691 -0.995,-1.523 -1.409,-2.352 0.396,1.457 1.207,2.709 1.962,3.982 l -0.553,-1.63"
             id="path3932"
             style="fill:#c8c8c9;fill-opacity:1" />
          <path
             d="m 84.568,48.916 -0.264,0.662 c -0.484,3.438 -1.529,6.84 -3.131,9.994 1.77,-3.328 2.915,-6.968 3.395,-10.656"
             id="path3934"
             style="fill:#c8c8c9;fill-opacity:1" />
          <path
             d="M 45.527,0.537 C 46.742,0.092 48.514,0.293 49.803,0 48.123,0.141 46.451,0.225 44.8,0.438 l 0.727,0.099"
             id="path3936"
             style="fill:#c8c8c9;fill-opacity:1" />
          <path
             d="m 2.872,23.219 c 0.28,2.592 -1.95,3.598 0.494,1.889 1.31,-2.951 -0.512,-0.815 -0.494,-1.889"
             id="path3938"
             style="fill:#c8c8c9;fill-opacity:1" />
          <path
             d="M 0,35.215 C 0.563,33.487 0.665,32.449 0.88,31.449 -0.676,33.438 0.164,33.862 0,35.215"
             id="path3940"
             style="fill:#c8c8c9;fill-opacity:1" />
        </g>
      </g>
    </g>
    <text
       x="21.088305"
       y="500.78586"
       transform="scale(1.0644644,0.9394396)"
       id="text5281"
       xml:space="preserve"
       style="font-size:11.57578754px;font-style:normal;font-variant:normal;font-weight:normal;font-stretch:normal;line-height:125%;letter-spacing:0px;word-spacing:0px;fill:#c8c8c9;fill-opacity:1;stroke:none"><tspan
         x="21.088305"
         y="500.78586"
         id="tspan5283"
         style="font-style:normal;font-variant:normal;font-weight:bold;font-stretch:normal;fill:#c8c8c9;fill-opacity:1;font-family:Liberation Sans;-inkscape-font-specification:Liberation Sans Bold">GNU/Hurd</tspan></text>
  </g>
</svg>
